<?xml version="1.0" encoding="UTF-8"?>
<svg width="119px" height="40px" viewBox="0 0 119 40" version="1.1" xmlns="http://www.w3.org/2000/svg" xmlns:xlink="http://www.w3.org/1999/xlink">
    <!-- Generator: Sketch 61.2 (89653) - https://sketch.com -->
    <title>hint-btn</title>
    <desc>Created with Sketch.</desc>
    <g id="Page-1" stroke="none" stroke-width="1" fill="none" fill-rule="evenodd">
        <g id="CGA" transform="translate(-121.000000, -541.000000)">
            <g id="hint-btn" transform="translate(121.000000, 541.000000)">
                <rect id="Rectangle" fill="#FF00E1" x="0" y="0" width="119" height="40" rx="15"></rect>
                <g id="reward-icon" transform="translate(37.000000, 6.000000)" fill="#FFFFFF">
                    <polygon id="Path-4" points="16 6 29 13.3263151 16 21"></polygon>
                    <rect id="Rectangle-5" x="7" y="5" width="5" height="3"></rect>
                    <rect id="Rectangle-5" x="7" y="10" width="5" height="3"></rect>
                    <rect id="Rectangle-5" x="7" y="15" width="5" height="3"></rect>
                    <rect id="Rectangle-5" x="7" y="20" width="5" height="3"></rect>
                    <rect id="Rectangle-5" x="32" y="5" width="5" height="3"></rect>
                    <rect id="Rectangle-5" x="32" y="10" width="5" height="3"></rect>
                    <rect id="Rectangle-5" x="32" y="15" width="5" height="3"></rect>
                    <rect id="Rectangle-5" x="32" y="20" width="5" height="3"></rect>
                    <path d="M38,0 C41.3137085,-6.08718376e-16 44,2.6862915 44,6 L44,22 C44,25.3137085 41.3137085,28 38,28 L6,28 C2.6862915,28 4.05812251e-16,25.3137085 0,22 L0,6 C-4.05812251e-16,2.6862915 2.6862915,6.08718376e-16 6,0 L38,0 Z M40,2.27272727 L4,2.27272727 C3.44771525,2.27272727 3,2.72044252 3,3.27272727 L3,3.27272727 L3,24.2727273 C3,24.825012 3.44771525,25.2727273 4,25.2727273 L4,25.2727273 L40,25.2727273 C40.5522847,25.2727273 41,24.825012 41,24.2727273 L41,24.2727273 L41,3.27272727 C41,2.72044252 40.5522847,2.27272727 40,2.27272727 L40,2.27272727 Z" id="Combined-Shape"></path>
                </g>
            </g>
        </g>
    </g>
</svg>